<?xml version="1.0" standalone="no"?>
<!DOCTYPE svg PUBLIC "-//W3C//DTD SVG 20010904//EN"
 "http://www.w3.org/TR/2001/REC-SVG-20010904/DTD/svg10.dtd">
<svg version="1.0" xmlns="http://www.w3.org/2000/svg"
 width="300.000000pt" height="300.000000pt" viewBox="0 0 300.000000 300.000000"
 preserveAspectRatio="xMidYMid meet">

<g transform="translate(0.000000,300.000000) scale(0.100000,-0.100000)"
fill="#000000" stroke="none">
<path d="M1344 2524 c-82 -53 -164 -105 -181 -116 -18 -11 -33 -23 -33 -26 1
-7 51 -40 197 -130 l73 -45 42 28 c23 16 47 28 53 28 5 0 75 -42 155 -93 80
-51 175 -113 213 -137 l67 -43 0 178 0 177 -48 30 c-26 16 -123 78 -215 137
-92 59 -169 108 -170 108 -2 0 -70 -43 -153 -96z"/>
<path d="M1060 2165 l0 -174 88 -56 c48 -31 161 -104 252 -162 279 -178 382
-244 451 -290 37 -23 69 -43 73 -43 3 0 6 78 6 174 l0 174 -241 154 c-133 84
-298 189 -367 233 -70 45 -155 100 -190 123 -35 23 -65 42 -68 42 -2 0 -4 -79
-4 -175z"/>
<path d="M1060 1607 l0 -174 214 -136 c118 -76 217 -137 221 -137 16 0 364
226 361 235 -1 5 -60 47 -131 92 l-129 82 -31 -18 c-16 -9 -39 -23 -51 -31
-18 -11 -29 -7 -105 42 -194 126 -339 218 -344 218 -3 0 -5 -78 -5 -173z"/>
<path d="M880 871 c-14 -27 -13 -104 2 -119 7 -7 27 -12 45 -12 30 0 33 -3 33
-30 0 -23 -4 -30 -20 -30 -11 0 -20 7 -20 15 0 9 -9 15 -25 15 -19 0 -25 -5
-25 -23 0 -35 19 -47 76 -47 59 0 64 6 64 79 0 56 -12 71 -57 71 -28 0 -33 3
-33 24 0 32 19 44 35 23 16 -22 55 -22 55 -1 0 39 -20 54 -70 54 -39 0 -52 -4
-60 -19z"/>
<path d="M1070 765 l0 -125 24 0 c23 0 25 5 28 47 2 36 7 49 21 51 14 3 17 -4
17 -47 0 -50 1 -51 30 -51 l30 0 0 126 0 125 -27 -3 c-26 -3 -28 -6 -31 -56
-3 -44 -6 -53 -20 -50 -13 2 -18 16 -20 56 -3 48 -5 52 -28 52 l-24 0 0 -125z"/>
<path d="M1292 878 c-14 -14 -17 -205 -3 -226 10 -16 109 -18 125 -2 15 15 21
192 7 219 -10 17 -21 21 -64 21 -29 0 -58 -5 -65 -12z m78 -119 c0 -81 -2 -90
-17 -87 -15 3 -19 16 -21 77 -3 83 1 101 23 101 12 0 15 -16 15 -91z"/>
<path d="M1490 765 l0 -125 24 0 c23 0 25 5 28 48 3 46 4 47 38 50 44 4 50 14
50 79 0 62 -13 73 -89 73 l-51 0 0 -125z m90 50 c0 -28 -4 -35 -20 -35 -16 0
-20 7 -20 35 0 28 4 35 20 35 16 0 20 -7 20 -35z"/>
<path d="M1800 766 l0 -126 30 0 c29 0 30 1 30 52 0 57 7 56 31 -5 13 -33 22
-43 43 -45 31 -4 31 -4 4 70 -21 58 -21 61 -5 106 23 63 22 74 -5 70 -17 -2
-28 -16 -43 -58 l-20 -55 -5 55 c-5 51 -7 55 -32 58 l-28 3 0 -125z"/>
<path d="M2000 870 c0 -15 7 -20 28 -20 16 0 31 -3 35 -6 3 -3 -10 -42 -29
-87 -48 -115 -48 -117 31 -117 58 0 65 2 65 20 0 16 -7 20 -35 20 -19 0 -35 3
-35 6 0 3 16 42 35 85 50 115 49 119 -30 119 -58 0 -65 -2 -65 -20z"/>
<path d="M1687 677 c-8 -21 8 -39 29 -35 27 5 25 42 -2 46 -12 2 -24 -3 -27
-11z"/>
<path d="M1370 470 c0 -33 4 -60 10 -60 6 0 10 16 10 36 0 45 24 42 28 -4 4
-43 22 -41 22 3 0 28 -5 38 -25 47 -14 6 -25 17 -25 25 0 7 -4 13 -10 13 -6 0
-10 -27 -10 -60z"/>
<path d="M1233 493 c-20 -7 -15 -30 9 -47 21 -15 14 -22 -14 -17 -5 0 -8 -3
-8 -9 0 -5 11 -10 25 -10 36 0 44 28 14 51 l-24 19 23 0 c13 0 20 4 17 10 -7
11 -22 12 -42 3z"/>
<path d="M1544 492 c-33 -22 -18 -82 20 -82 36 0 52 34 31 66 -16 24 -31 30
-51 16z m36 -37 c0 -16 -6 -25 -15 -25 -15 0 -21 31 -8 43 13 14 23 6 23 -18z"/>
<path d="M1703 493 c-20 -7 -17 -113 2 -113 8 0 14 5 13 12 -2 6 6 14 17 16
24 5 35 20 35 49 0 31 -35 49 -67 36z m44 -29 c7 -18 -11 -39 -25 -30 -12 7
-4 46 9 46 6 0 12 -7 16 -16z"/>
</g>
</svg>
